<svg xmlns="http://www.w3.org/2000/svg" viewBox="0 0 800 500" width="800" height="500" role="img" aria-label="A microphone lit against a dark stage">
  <rect width="800" height="500" fill="#141122"/>
  <defs>
    <radialGradient id="g400200" cx="50%" cy="50%" r="50%">
      <stop offset="0%" stop-color="#d17f9e" stop-opacity="0.45"/>
      <stop offset="100%" stop-color="#d17f9e" stop-opacity="0"/>
    </radialGradient>
  </defs>
  <circle cx="400" cy="200" r="280" fill="url(#g400200)"/>
  <g fill="none" stroke="#f7f4ef" stroke-width="3" opacity="0.9">
    <rect x="375" y="120" width="50" height="110" rx="25"/>
    <path d="M345 210 a55 55 0 0 0 110 0"/>
    <path d="M400 265 v50"/>
    <path d="M360 320 h80"/>
  </g>
  <g fill="#7fd1c1" opacity="0.5">
    <circle cx="90" cy="390" r="14"/>
    <circle cx="168" cy="390" r="14"/>
    <circle cx="246" cy="390" r="14"/>
    <circle cx="324" cy="390" r="14"/>
    <circle cx="402" cy="390" r="14"/>
    <circle cx="480" cy="390" r="14"/>
    <circle cx="558" cy="390" r="14"/>
    <circle cx="636" cy="390" r="14"/>
    <circle cx="714" cy="390" r="14"/>
    <circle cx="90" cy="445" r="14"/>
    <circle cx="168" cy="445" r="14"/>
    <circle cx="246" cy="445" r="14"/>
    <circle cx="324" cy="445" r="14"/>
    <circle cx="402" cy="445" r="14"/>
    <circle cx="480" cy="445" r="14"/>
    <circle cx="558" cy="445" r="14"/>
    <circle cx="636" cy="445" r="14"/>
    <circle cx="714" cy="445" r="14"/>
  </g>
</svg>
